<mxfile host="app.diagrams.net" modified="2024-04-23T00:05:10.756Z" agent="Mozilla/5.0 (Macintosh; Intel Mac OS X 10_15_7) AppleWebKit/537.36 (KHTML, like Gecko) Chrome/124.0.0.0 Safari/537.36" etag="Zr3ME2GNJq8jR9yXjc_P" version="24.2.5" type="github">
  <diagram name="Página-1" id="Xyiwk5hmZsS1gzjUmidi">
    <mxGraphModel dx="1587" dy="481" grid="1" gridSize="10" guides="1" tooltips="1" connect="1" arrows="1" fold="1" page="1" pageScale="1" pageWidth="827" pageHeight="1169" math="0" shadow="0">
      <root>
        <mxCell id="0" />
        <mxCell id="1" parent="0" />
        <mxCell id="ENDCgceuRyKjVsSIVM5c-2" value="Clientes" style="whiteSpace=wrap;html=1;align=center;fillColor=#dae8fc;strokeColor=#6c8ebf;" parent="1" vertex="1">
          <mxGeometry x="-120" y="165" width="100" height="40" as="geometry" />
        </mxCell>
        <mxCell id="ENDCgceuRyKjVsSIVM5c-3" value="Pedidos" style="whiteSpace=wrap;html=1;align=center;fillColor=#dae8fc;strokeColor=#6c8ebf;" parent="1" vertex="1">
          <mxGeometry x="200" y="165" width="100" height="40" as="geometry" />
        </mxCell>
        <mxCell id="ENDCgceuRyKjVsSIVM5c-4" value="Solicita" style="shape=rhombus;perimeter=rhombusPerimeter;whiteSpace=wrap;html=1;align=center;fillColor=#ffe6cc;strokeColor=#d79b00;" parent="1" vertex="1">
          <mxGeometry x="43.5" y="160" width="100" height="50" as="geometry" />
        </mxCell>
        <mxCell id="ENDCgceuRyKjVsSIVM5c-5" value="Cajones" style="whiteSpace=wrap;html=1;align=center;fillColor=#dae8fc;strokeColor=#6c8ebf;" parent="1" vertex="1">
          <mxGeometry x="200" y="400" width="100" height="40" as="geometry" />
        </mxCell>
        <mxCell id="ENDCgceuRyKjVsSIVM5c-7" value="Productos" style="whiteSpace=wrap;html=1;align=center;fillColor=#dae8fc;strokeColor=#6c8ebf;" parent="1" vertex="1">
          <mxGeometry x="600" y="400" width="100" height="40" as="geometry" />
        </mxCell>
        <mxCell id="ENDCgceuRyKjVsSIVM5c-8" value="Contiene" style="shape=rhombus;perimeter=rhombusPerimeter;whiteSpace=wrap;html=1;align=center;fillColor=#ffe6cc;strokeColor=#d79b00;" parent="1" vertex="1">
          <mxGeometry x="400" y="395" width="100" height="50" as="geometry" />
        </mxCell>
        <mxCell id="ENDCgceuRyKjVsSIVM5c-9" value="Proveedor" style="whiteSpace=wrap;html=1;align=center;fillColor=#dae8fc;strokeColor=#6c8ebf;" parent="1" vertex="1">
          <mxGeometry x="600" y="680" width="100" height="40" as="geometry" />
        </mxCell>
        <mxCell id="ENDCgceuRyKjVsSIVM5c-10" value="Envían" style="shape=rhombus;perimeter=rhombusPerimeter;whiteSpace=wrap;html=1;align=center;fillColor=#ffe6cc;strokeColor=#d79b00;" parent="1" vertex="1">
          <mxGeometry x="600" y="520" width="100" height="50" as="geometry" />
        </mxCell>
        <mxCell id="ENDCgceuRyKjVsSIVM5c-11" value="Tipo" style="whiteSpace=wrap;html=1;align=center;fillColor=#dae8fc;strokeColor=#6c8ebf;" parent="1" vertex="1">
          <mxGeometry x="1040" y="680" width="100" height="40" as="geometry" />
        </mxCell>
        <mxCell id="ENDCgceuRyKjVsSIVM5c-14" value="" style="endArrow=none;html=1;rounded=0;" parent="1" source="ENDCgceuRyKjVsSIVM5c-2" target="ENDCgceuRyKjVsSIVM5c-4" edge="1">
          <mxGeometry relative="1" as="geometry">
            <mxPoint x="90" y="245" as="sourcePoint" />
            <mxPoint x="250" y="245" as="targetPoint" />
          </mxGeometry>
        </mxCell>
        <mxCell id="ENDCgceuRyKjVsSIVM5c-15" value="" style="endArrow=none;html=1;rounded=0;" parent="1" source="ENDCgceuRyKjVsSIVM5c-4" target="ENDCgceuRyKjVsSIVM5c-3" edge="1">
          <mxGeometry relative="1" as="geometry">
            <mxPoint x="110" y="255" as="sourcePoint" />
            <mxPoint x="270" y="255" as="targetPoint" />
          </mxGeometry>
        </mxCell>
        <mxCell id="ENDCgceuRyKjVsSIVM5c-16" value="1 : M" style="text;strokeColor=none;fillColor=none;spacingLeft=4;spacingRight=4;overflow=hidden;rotatable=0;points=[[0,0.5],[1,0.5]];portConstraint=eastwest;fontSize=12;whiteSpace=wrap;html=1;fontStyle=1" parent="1" vertex="1">
          <mxGeometry x="73.5" y="130" width="40" height="30" as="geometry" />
        </mxCell>
        <mxCell id="ENDCgceuRyKjVsSIVM5c-17" value="1 : M" style="text;strokeColor=none;fillColor=none;spacingLeft=4;spacingRight=4;overflow=hidden;rotatable=0;points=[[0,0.5],[1,0.5]];portConstraint=eastwest;fontSize=12;whiteSpace=wrap;html=1;fontStyle=1" parent="1" vertex="1">
          <mxGeometry x="160" y="155" width="40" height="30" as="geometry" />
        </mxCell>
        <mxCell id="ENDCgceuRyKjVsSIVM5c-18" value="1 : 1" style="text;strokeColor=none;fillColor=none;spacingLeft=4;spacingRight=4;overflow=hidden;rotatable=0;points=[[0,0.5],[1,0.5]];portConstraint=eastwest;fontSize=12;whiteSpace=wrap;html=1;fontStyle=1" parent="1" vertex="1">
          <mxGeometry x="-20" y="155" width="40" height="30" as="geometry" />
        </mxCell>
        <mxCell id="ENDCgceuRyKjVsSIVM5c-19" value="Incluye" style="shape=rhombus;perimeter=rhombusPerimeter;whiteSpace=wrap;html=1;align=center;fillColor=#ffe6cc;strokeColor=#d79b00;" parent="1" vertex="1">
          <mxGeometry x="200" y="280" width="100" height="50" as="geometry" />
        </mxCell>
        <mxCell id="ENDCgceuRyKjVsSIVM5c-20" value="" style="endArrow=none;html=1;rounded=0;" parent="1" source="ENDCgceuRyKjVsSIVM5c-3" target="ENDCgceuRyKjVsSIVM5c-19" edge="1">
          <mxGeometry relative="1" as="geometry">
            <mxPoint x="90" y="270" as="sourcePoint" />
            <mxPoint x="250" y="270" as="targetPoint" />
          </mxGeometry>
        </mxCell>
        <mxCell id="ENDCgceuRyKjVsSIVM5c-21" value="" style="endArrow=none;html=1;rounded=0;" parent="1" source="ENDCgceuRyKjVsSIVM5c-19" target="ENDCgceuRyKjVsSIVM5c-5" edge="1">
          <mxGeometry relative="1" as="geometry">
            <mxPoint x="80" y="320" as="sourcePoint" />
            <mxPoint x="240" y="320" as="targetPoint" />
          </mxGeometry>
        </mxCell>
        <mxCell id="ENDCgceuRyKjVsSIVM5c-22" value="1 : M" style="text;strokeColor=none;fillColor=none;spacingLeft=4;spacingRight=4;overflow=hidden;rotatable=0;points=[[0,0.5],[1,0.5]];portConstraint=eastwest;fontSize=12;whiteSpace=wrap;html=1;fontStyle=1" parent="1" vertex="1">
          <mxGeometry x="300" y="290" width="40" height="30" as="geometry" />
        </mxCell>
        <mxCell id="ENDCgceuRyKjVsSIVM5c-23" value="ID" style="ellipse;whiteSpace=wrap;html=1;align=center;fontStyle=4;fillColor=#d5e8d4;strokeColor=#82b366;" parent="1" vertex="1">
          <mxGeometry x="-120" y="60" width="100" height="40" as="geometry" />
        </mxCell>
        <mxCell id="ENDCgceuRyKjVsSIVM5c-24" value="Tipo" style="ellipse;whiteSpace=wrap;html=1;align=center;fillColor=#d5e8d4;strokeColor=#82b366;" parent="1" vertex="1">
          <mxGeometry x="-240" y="70" width="100" height="40" as="geometry" />
        </mxCell>
        <mxCell id="ENDCgceuRyKjVsSIVM5c-25" value="Nombre" style="ellipse;whiteSpace=wrap;html=1;align=center;fillColor=#d5e8d4;strokeColor=#82b366;" parent="1" vertex="1">
          <mxGeometry x="-270" y="150" width="100" height="40" as="geometry" />
        </mxCell>
        <mxCell id="ENDCgceuRyKjVsSIVM5c-26" value="Apellido" style="ellipse;whiteSpace=wrap;html=1;align=center;fillColor=#d5e8d4;strokeColor=#82b366;" parent="1" vertex="1">
          <mxGeometry x="-260" y="230" width="100" height="40" as="geometry" />
        </mxCell>
        <mxCell id="ENDCgceuRyKjVsSIVM5c-27" value="" style="endArrow=none;html=1;rounded=0;" parent="1" source="ENDCgceuRyKjVsSIVM5c-23" target="ENDCgceuRyKjVsSIVM5c-2" edge="1">
          <mxGeometry relative="1" as="geometry">
            <mxPoint x="-90" y="100" as="sourcePoint" />
            <mxPoint x="70" y="100" as="targetPoint" />
          </mxGeometry>
        </mxCell>
        <mxCell id="ENDCgceuRyKjVsSIVM5c-28" value="" style="endArrow=none;html=1;rounded=0;" parent="1" source="ENDCgceuRyKjVsSIVM5c-24" target="ENDCgceuRyKjVsSIVM5c-2" edge="1">
          <mxGeometry relative="1" as="geometry">
            <mxPoint x="-150" y="140" as="sourcePoint" />
            <mxPoint x="10" y="140" as="targetPoint" />
          </mxGeometry>
        </mxCell>
        <mxCell id="ENDCgceuRyKjVsSIVM5c-30" value="" style="endArrow=none;html=1;rounded=0;" parent="1" source="ENDCgceuRyKjVsSIVM5c-25" target="ENDCgceuRyKjVsSIVM5c-2" edge="1">
          <mxGeometry relative="1" as="geometry">
            <mxPoint x="-190" y="290" as="sourcePoint" />
            <mxPoint x="-30" y="290" as="targetPoint" />
          </mxGeometry>
        </mxCell>
        <mxCell id="ENDCgceuRyKjVsSIVM5c-31" value="" style="endArrow=none;html=1;rounded=0;" parent="1" source="ENDCgceuRyKjVsSIVM5c-26" target="ENDCgceuRyKjVsSIVM5c-2" edge="1">
          <mxGeometry relative="1" as="geometry">
            <mxPoint x="-160" y="320" as="sourcePoint" />
            <mxPoint y="320" as="targetPoint" />
          </mxGeometry>
        </mxCell>
        <mxCell id="ENDCgceuRyKjVsSIVM5c-32" value="Teléfono" style="ellipse;shape=doubleEllipse;margin=3;whiteSpace=wrap;html=1;align=center;fillColor=#d5e8d4;strokeColor=#82b366;" parent="1" vertex="1">
          <mxGeometry x="-140" y="260" width="100" height="40" as="geometry" />
        </mxCell>
        <mxCell id="ENDCgceuRyKjVsSIVM5c-34" value="" style="endArrow=none;html=1;rounded=0;" parent="1" source="ENDCgceuRyKjVsSIVM5c-2" target="ENDCgceuRyKjVsSIVM5c-32" edge="1">
          <mxGeometry relative="1" as="geometry">
            <mxPoint x="-40" y="210" as="sourcePoint" />
            <mxPoint x="120" y="210" as="targetPoint" />
          </mxGeometry>
        </mxCell>
        <mxCell id="ENDCgceuRyKjVsSIVM5c-35" value="IDPedido" style="ellipse;whiteSpace=wrap;html=1;align=center;fontStyle=4;fillColor=#d5e8d4;strokeColor=#82b366;" parent="1" vertex="1">
          <mxGeometry x="160" y="30" width="100" height="40" as="geometry" />
        </mxCell>
        <mxCell id="ENDCgceuRyKjVsSIVM5c-36" value="FechaPedido" style="ellipse;whiteSpace=wrap;html=1;align=center;fillColor=#d5e8d4;strokeColor=#82b366;" parent="1" vertex="1">
          <mxGeometry x="280" y="40" width="100" height="40" as="geometry" />
        </mxCell>
        <mxCell id="ENDCgceuRyKjVsSIVM5c-37" value="FechaEntrega" style="ellipse;whiteSpace=wrap;html=1;align=center;fillColor=#d5e8d4;strokeColor=#82b366;" parent="1" vertex="1">
          <mxGeometry x="350" y="90" width="100" height="40" as="geometry" />
        </mxCell>
        <mxCell id="ENDCgceuRyKjVsSIVM5c-38" value="FormaDePago" style="ellipse;whiteSpace=wrap;html=1;align=center;fillColor=#d5e8d4;strokeColor=#82b366;" parent="1" vertex="1">
          <mxGeometry x="360" y="165" width="100" height="40" as="geometry" />
        </mxCell>
        <mxCell id="ENDCgceuRyKjVsSIVM5c-39" value="" style="endArrow=none;html=1;rounded=0;" parent="1" source="ENDCgceuRyKjVsSIVM5c-35" target="ENDCgceuRyKjVsSIVM5c-3" edge="1">
          <mxGeometry relative="1" as="geometry">
            <mxPoint x="130" y="130" as="sourcePoint" />
            <mxPoint x="290" y="130" as="targetPoint" />
          </mxGeometry>
        </mxCell>
        <mxCell id="ENDCgceuRyKjVsSIVM5c-40" value="" style="endArrow=none;html=1;rounded=0;" parent="1" source="ENDCgceuRyKjVsSIVM5c-36" target="ENDCgceuRyKjVsSIVM5c-3" edge="1">
          <mxGeometry relative="1" as="geometry">
            <mxPoint x="290" y="120" as="sourcePoint" />
            <mxPoint x="450" y="120" as="targetPoint" />
          </mxGeometry>
        </mxCell>
        <mxCell id="ENDCgceuRyKjVsSIVM5c-41" value="" style="endArrow=none;html=1;rounded=0;" parent="1" source="ENDCgceuRyKjVsSIVM5c-3" target="ENDCgceuRyKjVsSIVM5c-37" edge="1">
          <mxGeometry relative="1" as="geometry">
            <mxPoint x="310" y="150" as="sourcePoint" />
            <mxPoint x="470" y="150" as="targetPoint" />
          </mxGeometry>
        </mxCell>
        <mxCell id="ENDCgceuRyKjVsSIVM5c-42" value="" style="endArrow=none;html=1;rounded=0;" parent="1" source="ENDCgceuRyKjVsSIVM5c-3" target="ENDCgceuRyKjVsSIVM5c-38" edge="1">
          <mxGeometry relative="1" as="geometry">
            <mxPoint x="340" y="240" as="sourcePoint" />
            <mxPoint x="500" y="240" as="targetPoint" />
          </mxGeometry>
        </mxCell>
        <mxCell id="ENDCgceuRyKjVsSIVM5c-45" value="1 : M" style="text;strokeColor=none;fillColor=none;spacingLeft=4;spacingRight=4;overflow=hidden;rotatable=0;points=[[0,0.5],[1,0.5]];portConstraint=eastwest;fontSize=12;whiteSpace=wrap;html=1;fontStyle=1" parent="1" vertex="1">
          <mxGeometry x="250" y="370" width="40" height="30" as="geometry" />
        </mxCell>
        <mxCell id="ENDCgceuRyKjVsSIVM5c-46" value="1 : 1" style="text;strokeColor=none;fillColor=none;spacingLeft=4;spacingRight=4;overflow=hidden;rotatable=0;points=[[0,0.5],[1,0.5]];portConstraint=eastwest;fontSize=12;whiteSpace=wrap;html=1;fontStyle=1" parent="1" vertex="1">
          <mxGeometry x="250" y="205" width="40" height="30" as="geometry" />
        </mxCell>
        <mxCell id="ENDCgceuRyKjVsSIVM5c-47" value="IDCajon" style="ellipse;whiteSpace=wrap;html=1;align=center;fontStyle=4;fillColor=#d5e8d4;strokeColor=#82b366;" parent="1" vertex="1">
          <mxGeometry x="30" y="380" width="100" height="40" as="geometry" />
        </mxCell>
        <mxCell id="ENDCgceuRyKjVsSIVM5c-48" value="Nombre" style="ellipse;whiteSpace=wrap;html=1;align=center;fillColor=#d5e8d4;strokeColor=#82b366;" parent="1" vertex="1">
          <mxGeometry x="20" y="460" width="100" height="40" as="geometry" />
        </mxCell>
        <mxCell id="ENDCgceuRyKjVsSIVM5c-49" value="Descripción" style="ellipse;whiteSpace=wrap;html=1;align=center;fillColor=#d5e8d4;strokeColor=#82b366;" parent="1" vertex="1">
          <mxGeometry x="143.5" y="490" width="100" height="40" as="geometry" />
        </mxCell>
        <mxCell id="ENDCgceuRyKjVsSIVM5c-50" value="" style="endArrow=none;html=1;rounded=0;" parent="1" source="ENDCgceuRyKjVsSIVM5c-47" target="ENDCgceuRyKjVsSIVM5c-5" edge="1">
          <mxGeometry relative="1" as="geometry">
            <mxPoint x="160" y="490" as="sourcePoint" />
            <mxPoint x="320" y="490" as="targetPoint" />
          </mxGeometry>
        </mxCell>
        <mxCell id="ENDCgceuRyKjVsSIVM5c-51" value="" style="endArrow=none;html=1;rounded=0;" parent="1" source="ENDCgceuRyKjVsSIVM5c-48" target="ENDCgceuRyKjVsSIVM5c-5" edge="1">
          <mxGeometry relative="1" as="geometry">
            <mxPoint x="170" y="500" as="sourcePoint" />
            <mxPoint x="330" y="500" as="targetPoint" />
          </mxGeometry>
        </mxCell>
        <mxCell id="ENDCgceuRyKjVsSIVM5c-52" value="" style="endArrow=none;html=1;rounded=0;" parent="1" source="ENDCgceuRyKjVsSIVM5c-49" target="ENDCgceuRyKjVsSIVM5c-5" edge="1">
          <mxGeometry relative="1" as="geometry">
            <mxPoint x="280" y="510" as="sourcePoint" />
            <mxPoint x="440" y="510" as="targetPoint" />
          </mxGeometry>
        </mxCell>
        <mxCell id="ENDCgceuRyKjVsSIVM5c-53" value="" style="endArrow=none;html=1;rounded=0;" parent="1" source="ENDCgceuRyKjVsSIVM5c-5" target="ENDCgceuRyKjVsSIVM5c-8" edge="1">
          <mxGeometry relative="1" as="geometry">
            <mxPoint x="370" y="520" as="sourcePoint" />
            <mxPoint x="530" y="520" as="targetPoint" />
          </mxGeometry>
        </mxCell>
        <mxCell id="ENDCgceuRyKjVsSIVM5c-54" value="" style="endArrow=none;html=1;rounded=0;" parent="1" source="ENDCgceuRyKjVsSIVM5c-8" target="ENDCgceuRyKjVsSIVM5c-7" edge="1">
          <mxGeometry relative="1" as="geometry">
            <mxPoint x="400" y="510" as="sourcePoint" />
            <mxPoint x="560" y="510" as="targetPoint" />
          </mxGeometry>
        </mxCell>
        <mxCell id="ENDCgceuRyKjVsSIVM5c-55" value="“Jolgorio Tropical”, “Verde que te quiero verde”, “Chupate esa mandarina”,&lt;div&gt;etc.&lt;/div&gt;" style="shape=hexagon;perimeter=hexagonPerimeter2;whiteSpace=wrap;html=1;fixedSize=1;fillColor=#e1d5e7;strokeColor=#9673a6;" parent="1" vertex="1">
          <mxGeometry x="-86.5" y="520" width="130" height="100" as="geometry" />
        </mxCell>
        <mxCell id="ENDCgceuRyKjVsSIVM5c-56" value="" style="endArrow=none;html=1;rounded=0;" parent="1" source="ENDCgceuRyKjVsSIVM5c-48" target="ENDCgceuRyKjVsSIVM5c-55" edge="1">
          <mxGeometry relative="1" as="geometry">
            <mxPoint x="70" y="600" as="sourcePoint" />
            <mxPoint x="230" y="600" as="targetPoint" />
          </mxGeometry>
        </mxCell>
        <mxCell id="ENDCgceuRyKjVsSIVM5c-57" value="IdFruta" style="ellipse;whiteSpace=wrap;html=1;align=center;fontStyle=4;fillColor=#d5e8d4;strokeColor=#82b366;" parent="1" vertex="1">
          <mxGeometry x="490" y="310" width="100" height="40" as="geometry" />
        </mxCell>
        <mxCell id="ENDCgceuRyKjVsSIVM5c-58" value="Nombre" style="ellipse;whiteSpace=wrap;html=1;align=center;fillColor=#d5e8d4;strokeColor=#82b366;" parent="1" vertex="1">
          <mxGeometry x="570" y="270" width="100" height="40" as="geometry" />
        </mxCell>
        <mxCell id="ENDCgceuRyKjVsSIVM5c-59" value="M : N" style="text;strokeColor=none;fillColor=none;spacingLeft=4;spacingRight=4;overflow=hidden;rotatable=0;points=[[0,0.5],[1,0.5]];portConstraint=eastwest;fontSize=12;whiteSpace=wrap;html=1;fontStyle=1" parent="1" vertex="1">
          <mxGeometry x="430" y="365" width="40" height="30" as="geometry" />
        </mxCell>
        <mxCell id="ENDCgceuRyKjVsSIVM5c-60" value="1 : M" style="text;strokeColor=none;fillColor=none;spacingLeft=4;spacingRight=4;overflow=hidden;rotatable=0;points=[[0,0.5],[1,0.5]];portConstraint=eastwest;fontSize=12;whiteSpace=wrap;html=1;fontStyle=1" parent="1" vertex="1">
          <mxGeometry x="300" y="390" width="40" height="30" as="geometry" />
        </mxCell>
        <mxCell id="ENDCgceuRyKjVsSIVM5c-61" value="1 : M" style="text;strokeColor=none;fillColor=none;spacingLeft=4;spacingRight=4;overflow=hidden;rotatable=0;points=[[0,0.5],[1,0.5]];portConstraint=eastwest;fontSize=12;whiteSpace=wrap;html=1;fontStyle=1" parent="1" vertex="1">
          <mxGeometry x="560" y="390" width="40" height="30" as="geometry" />
        </mxCell>
        <mxCell id="ENDCgceuRyKjVsSIVM5c-62" value="Precio" style="ellipse;whiteSpace=wrap;html=1;align=center;fillColor=#d5e8d4;strokeColor=#82b366;" parent="1" vertex="1">
          <mxGeometry x="680" y="280" width="100" height="40" as="geometry" />
        </mxCell>
        <mxCell id="ENDCgceuRyKjVsSIVM5c-63" value="" style="endArrow=none;html=1;rounded=0;" parent="1" source="ENDCgceuRyKjVsSIVM5c-57" target="ENDCgceuRyKjVsSIVM5c-7" edge="1">
          <mxGeometry relative="1" as="geometry">
            <mxPoint x="650" y="360" as="sourcePoint" />
            <mxPoint x="810" y="360" as="targetPoint" />
          </mxGeometry>
        </mxCell>
        <mxCell id="ENDCgceuRyKjVsSIVM5c-64" value="" style="endArrow=none;html=1;rounded=0;" parent="1" source="ENDCgceuRyKjVsSIVM5c-58" target="ENDCgceuRyKjVsSIVM5c-7" edge="1">
          <mxGeometry relative="1" as="geometry">
            <mxPoint x="580" y="390" as="sourcePoint" />
            <mxPoint x="740" y="390" as="targetPoint" />
          </mxGeometry>
        </mxCell>
        <mxCell id="ENDCgceuRyKjVsSIVM5c-65" value="" style="endArrow=none;html=1;rounded=0;" parent="1" source="ENDCgceuRyKjVsSIVM5c-62" target="ENDCgceuRyKjVsSIVM5c-7" edge="1">
          <mxGeometry relative="1" as="geometry">
            <mxPoint x="580" y="390" as="sourcePoint" />
            <mxPoint x="740" y="390" as="targetPoint" />
          </mxGeometry>
        </mxCell>
        <mxCell id="ENDCgceuRyKjVsSIVM5c-66" value="" style="endArrow=none;html=1;rounded=0;" parent="1" source="ENDCgceuRyKjVsSIVM5c-68" target="ENDCgceuRyKjVsSIVM5c-58" edge="1">
          <mxGeometry relative="1" as="geometry">
            <mxPoint x="540" y="260" as="sourcePoint" />
            <mxPoint x="700" y="260" as="targetPoint" />
          </mxGeometry>
        </mxCell>
        <mxCell id="ENDCgceuRyKjVsSIVM5c-67" value="" style="endArrow=none;html=1;rounded=0;" parent="1" source="ENDCgceuRyKjVsSIVM5c-69" target="ENDCgceuRyKjVsSIVM5c-62" edge="1">
          <mxGeometry relative="1" as="geometry">
            <mxPoint x="760" y="290" as="sourcePoint" />
            <mxPoint x="920" y="290" as="targetPoint" />
          </mxGeometry>
        </mxCell>
        <mxCell id="ENDCgceuRyKjVsSIVM5c-68" value="“Frutilla”,&amp;nbsp;&lt;div&gt;&lt;span style=&quot;background-color: initial;&quot;&gt;“Manzana Verde”,&amp;nbsp;&lt;/span&gt;&lt;/div&gt;&lt;div&gt;&lt;span style=&quot;background-color: initial;&quot;&gt;etc.&lt;/span&gt;&lt;/div&gt;" style="shape=hexagon;perimeter=hexagonPerimeter2;whiteSpace=wrap;html=1;fixedSize=1;fillColor=#e1d5e7;strokeColor=#9673a6;" parent="1" vertex="1">
          <mxGeometry x="564.75" y="145" width="110.5" height="85" as="geometry" />
        </mxCell>
        <mxCell id="ENDCgceuRyKjVsSIVM5c-69" value="Debe ser precio ($) por Kg" style="shape=hexagon;perimeter=hexagonPerimeter2;whiteSpace=wrap;html=1;fixedSize=1;fillColor=#e1d5e7;strokeColor=#9673a6;" parent="1" vertex="1">
          <mxGeometry x="710" y="160" width="98.25" height="85" as="geometry" />
        </mxCell>
        <mxCell id="ENDCgceuRyKjVsSIVM5c-70" value="" style="endArrow=none;html=1;rounded=0;" parent="1" source="ENDCgceuRyKjVsSIVM5c-7" target="ENDCgceuRyKjVsSIVM5c-10" edge="1">
          <mxGeometry relative="1" as="geometry">
            <mxPoint x="530" y="540" as="sourcePoint" />
            <mxPoint x="690" y="540" as="targetPoint" />
          </mxGeometry>
        </mxCell>
        <mxCell id="ENDCgceuRyKjVsSIVM5c-71" value="" style="endArrow=none;html=1;rounded=0;" parent="1" source="ENDCgceuRyKjVsSIVM5c-10" target="ENDCgceuRyKjVsSIVM5c-9" edge="1">
          <mxGeometry relative="1" as="geometry">
            <mxPoint x="560" y="660" as="sourcePoint" />
            <mxPoint x="720" y="660" as="targetPoint" />
          </mxGeometry>
        </mxCell>
        <mxCell id="ENDCgceuRyKjVsSIVM5c-72" value="Proveen" style="shape=rhombus;perimeter=rhombusPerimeter;whiteSpace=wrap;html=1;align=center;fillColor=#ffe6cc;strokeColor=#d79b00;" parent="1" vertex="1">
          <mxGeometry x="850" y="675" width="100" height="50" as="geometry" />
        </mxCell>
        <mxCell id="ENDCgceuRyKjVsSIVM5c-73" value="" style="endArrow=none;html=1;rounded=0;" parent="1" source="ENDCgceuRyKjVsSIVM5c-9" target="ENDCgceuRyKjVsSIVM5c-72" edge="1">
          <mxGeometry relative="1" as="geometry">
            <mxPoint x="690" y="490" as="sourcePoint" />
            <mxPoint x="850" y="490" as="targetPoint" />
            <Array as="points" />
          </mxGeometry>
        </mxCell>
        <mxCell id="ENDCgceuRyKjVsSIVM5c-74" value="" style="endArrow=none;html=1;rounded=0;" parent="1" source="ENDCgceuRyKjVsSIVM5c-72" target="ENDCgceuRyKjVsSIVM5c-11" edge="1">
          <mxGeometry relative="1" as="geometry">
            <mxPoint x="1480" y="575" as="sourcePoint" />
            <mxPoint x="1640" y="575" as="targetPoint" />
          </mxGeometry>
        </mxCell>
        <mxCell id="ENDCgceuRyKjVsSIVM5c-75" value="M : N" style="text;strokeColor=none;fillColor=none;spacingLeft=4;spacingRight=4;overflow=hidden;rotatable=0;points=[[0,0.5],[1,0.5]];portConstraint=eastwest;fontSize=12;whiteSpace=wrap;html=1;fontStyle=1" parent="1" vertex="1">
          <mxGeometry x="700" y="530" width="40" height="30" as="geometry" />
        </mxCell>
        <mxCell id="ENDCgceuRyKjVsSIVM5c-76" value="0 : N" style="text;strokeColor=none;fillColor=none;spacingLeft=4;spacingRight=4;overflow=hidden;rotatable=0;points=[[0,0.5],[1,0.5]];portConstraint=eastwest;fontSize=12;whiteSpace=wrap;html=1;fontStyle=1" parent="1" vertex="1">
          <mxGeometry x="650" y="440" width="40" height="30" as="geometry" />
        </mxCell>
        <mxCell id="ENDCgceuRyKjVsSIVM5c-77" value="1 : M" style="text;strokeColor=none;fillColor=none;spacingLeft=4;spacingRight=4;overflow=hidden;rotatable=0;points=[[0,0.5],[1,0.5]];portConstraint=eastwest;fontSize=12;whiteSpace=wrap;html=1;fontStyle=1" parent="1" vertex="1">
          <mxGeometry x="650" y="650" width="40" height="30" as="geometry" />
        </mxCell>
        <mxCell id="ENDCgceuRyKjVsSIVM5c-78" value="1 : M" style="text;strokeColor=none;fillColor=none;spacingLeft=4;spacingRight=4;overflow=hidden;rotatable=0;points=[[0,0.5],[1,0.5]];portConstraint=eastwest;fontSize=12;whiteSpace=wrap;html=1;fontStyle=1" parent="1" vertex="1">
          <mxGeometry x="880" y="645" width="40" height="30" as="geometry" />
        </mxCell>
        <mxCell id="ENDCgceuRyKjVsSIVM5c-81" value="Sustituto" style="shape=rhombus;perimeter=rhombusPerimeter;whiteSpace=wrap;html=1;align=center;fillColor=#ffe6cc;strokeColor=#d79b00;" parent="1" vertex="1">
          <mxGeometry x="820" y="395" width="100" height="50" as="geometry" />
        </mxCell>
        <mxCell id="ENDCgceuRyKjVsSIVM5c-82" value="IdProveedor" style="ellipse;whiteSpace=wrap;html=1;align=center;fontStyle=4;fillColor=#d5e8d4;strokeColor=#82b366;" parent="1" vertex="1">
          <mxGeometry x="480" y="780" width="100" height="40" as="geometry" />
        </mxCell>
        <mxCell id="ENDCgceuRyKjVsSIVM5c-83" value="Nombre" style="ellipse;whiteSpace=wrap;html=1;align=center;fillColor=#d5e8d4;strokeColor=#82b366;" parent="1" vertex="1">
          <mxGeometry x="550" y="830" width="100" height="40" as="geometry" />
        </mxCell>
        <mxCell id="ENDCgceuRyKjVsSIVM5c-84" value="Domicilio" style="ellipse;whiteSpace=wrap;html=1;align=center;fillColor=#d5e8d4;strokeColor=#82b366;" parent="1" vertex="1">
          <mxGeometry x="690" y="820" width="100" height="40" as="geometry" />
        </mxCell>
        <mxCell id="ENDCgceuRyKjVsSIVM5c-85" value="DiasEntrega" style="ellipse;whiteSpace=wrap;html=1;align=center;fillColor=#d5e8d4;strokeColor=#82b366;" parent="1" vertex="1">
          <mxGeometry x="750" y="760" width="100" height="40" as="geometry" />
        </mxCell>
        <mxCell id="ENDCgceuRyKjVsSIVM5c-86" value="" style="endArrow=none;html=1;rounded=0;" parent="1" source="ENDCgceuRyKjVsSIVM5c-82" target="ENDCgceuRyKjVsSIVM5c-9" edge="1">
          <mxGeometry relative="1" as="geometry">
            <mxPoint x="570" y="770" as="sourcePoint" />
            <mxPoint x="730" y="770" as="targetPoint" />
          </mxGeometry>
        </mxCell>
        <mxCell id="ENDCgceuRyKjVsSIVM5c-87" value="" style="endArrow=none;html=1;rounded=0;" parent="1" source="ENDCgceuRyKjVsSIVM5c-83" target="ENDCgceuRyKjVsSIVM5c-9" edge="1">
          <mxGeometry relative="1" as="geometry">
            <mxPoint x="610" y="820" as="sourcePoint" />
            <mxPoint x="770" y="820" as="targetPoint" />
          </mxGeometry>
        </mxCell>
        <mxCell id="ENDCgceuRyKjVsSIVM5c-88" value="" style="endArrow=none;html=1;rounded=0;" parent="1" source="ENDCgceuRyKjVsSIVM5c-9" target="ENDCgceuRyKjVsSIVM5c-84" edge="1">
          <mxGeometry relative="1" as="geometry">
            <mxPoint x="590" y="790" as="sourcePoint" />
            <mxPoint x="750" y="790" as="targetPoint" />
          </mxGeometry>
        </mxCell>
        <mxCell id="ENDCgceuRyKjVsSIVM5c-90" value="" style="endArrow=none;html=1;rounded=0;" parent="1" source="ENDCgceuRyKjVsSIVM5c-9" target="ENDCgceuRyKjVsSIVM5c-85" edge="1">
          <mxGeometry relative="1" as="geometry">
            <mxPoint x="700" y="730" as="sourcePoint" />
            <mxPoint x="860" y="730" as="targetPoint" />
          </mxGeometry>
        </mxCell>
        <mxCell id="ENDCgceuRyKjVsSIVM5c-91" value="IdTipo" style="ellipse;whiteSpace=wrap;html=1;align=center;fontStyle=4;fillColor=#d5e8d4;strokeColor=#82b366;" parent="1" vertex="1">
          <mxGeometry x="1160" y="620" width="100" height="40" as="geometry" />
        </mxCell>
        <mxCell id="ENDCgceuRyKjVsSIVM5c-92" value="" style="endArrow=none;html=1;rounded=0;" parent="1" source="ENDCgceuRyKjVsSIVM5c-91" target="ENDCgceuRyKjVsSIVM5c-11" edge="1">
          <mxGeometry relative="1" as="geometry">
            <mxPoint x="1229.9988181421293" y="689.6810767714987" as="sourcePoint" />
            <mxPoint x="768.61" y="730" as="targetPoint" />
          </mxGeometry>
        </mxCell>
        <mxCell id="ENDCgceuRyKjVsSIVM5c-93" value="Nombre" style="ellipse;whiteSpace=wrap;html=1;align=center;fillColor=#d5e8d4;strokeColor=#82b366;" parent="1" vertex="1">
          <mxGeometry x="1160" y="730" width="100" height="40" as="geometry" />
        </mxCell>
        <mxCell id="ENDCgceuRyKjVsSIVM5c-94" value="" style="endArrow=none;html=1;rounded=0;" parent="1" source="ENDCgceuRyKjVsSIVM5c-93" target="ENDCgceuRyKjVsSIVM5c-11" edge="1">
          <mxGeometry relative="1" as="geometry">
            <mxPoint x="1212.011953619143" y="731.373067836915" as="sourcePoint" />
            <mxPoint x="908.61" y="790" as="targetPoint" />
          </mxGeometry>
        </mxCell>
        <mxCell id="ENDCgceuRyKjVsSIVM5c-95" value="1 : M" style="text;strokeColor=none;fillColor=none;spacingLeft=4;spacingRight=4;overflow=hidden;rotatable=0;points=[[0,0.5],[1,0.5]];portConstraint=eastwest;fontSize=12;whiteSpace=wrap;html=1;fontStyle=1" parent="1" vertex="1">
          <mxGeometry x="850" y="370" width="40" height="30" as="geometry" />
        </mxCell>
        <mxCell id="ENDCgceuRyKjVsSIVM5c-96" value="" style="endArrow=none;html=1;rounded=0;" parent="1" source="ENDCgceuRyKjVsSIVM5c-7" target="ENDCgceuRyKjVsSIVM5c-81" edge="1">
          <mxGeometry relative="1" as="geometry">
            <mxPoint x="740" y="490" as="sourcePoint" />
            <mxPoint x="900" y="490" as="targetPoint" />
          </mxGeometry>
        </mxCell>
        <mxCell id="ENDCgceuRyKjVsSIVM5c-98" value="1 : 1" style="text;strokeColor=none;fillColor=none;spacingLeft=4;spacingRight=4;overflow=hidden;rotatable=0;points=[[0,0.5],[1,0.5]];portConstraint=eastwest;fontSize=12;whiteSpace=wrap;html=1;fontStyle=1" parent="1" vertex="1">
          <mxGeometry x="920" y="390" width="40" height="30" as="geometry" />
        </mxCell>
        <mxCell id="ENDCgceuRyKjVsSIVM5c-99" value="1 : M" style="text;strokeColor=none;fillColor=none;spacingLeft=4;spacingRight=4;overflow=hidden;rotatable=0;points=[[0,0.5],[1,0.5]];portConstraint=eastwest;fontSize=12;whiteSpace=wrap;html=1;fontStyle=1" parent="1" vertex="1">
          <mxGeometry x="700" y="390" width="40" height="30" as="geometry" />
        </mxCell>
        <mxCell id="fh4j361l2mFlL4_-HvFS-2" value="1 : M" style="text;strokeColor=none;fillColor=none;spacingLeft=4;spacingRight=4;overflow=hidden;rotatable=0;points=[[0,0.5],[1,0.5]];portConstraint=eastwest;fontSize=12;whiteSpace=wrap;html=1;fontStyle=1" parent="1" vertex="1">
          <mxGeometry x="1000" y="670" width="40" height="30" as="geometry" />
        </mxCell>
        <mxCell id="fh4j361l2mFlL4_-HvFS-3" value="1 : 1" style="text;strokeColor=none;fillColor=none;spacingLeft=4;spacingRight=4;overflow=hidden;rotatable=0;points=[[0,0.5],[1,0.5]];portConstraint=eastwest;fontSize=12;whiteSpace=wrap;html=1;fontStyle=1" parent="1" vertex="1">
          <mxGeometry x="700" y="670" width="40" height="30" as="geometry" />
        </mxCell>
        <mxCell id="fh4j361l2mFlL4_-HvFS-4" value="Cantidad" style="ellipse;whiteSpace=wrap;html=1;align=center;fillColor=#d5e8d4;strokeColor=#82b366;" parent="1" vertex="1">
          <mxGeometry x="720" y="330" width="100" height="40" as="geometry" />
        </mxCell>
        <mxCell id="fh4j361l2mFlL4_-HvFS-7" value="" style="endArrow=none;html=1;rounded=0;" parent="1" source="ENDCgceuRyKjVsSIVM5c-7" target="fh4j361l2mFlL4_-HvFS-4" edge="1">
          <mxGeometry relative="1" as="geometry">
            <mxPoint x="790" y="360" as="sourcePoint" />
            <mxPoint x="950" y="360" as="targetPoint" />
          </mxGeometry>
        </mxCell>
        <mxCell id="54kq27QgdEbS9Q5KJkMP-1" style="edgeStyle=orthogonalEdgeStyle;rounded=0;orthogonalLoop=1;jettySize=auto;html=1;entryX=0.5;entryY=1;entryDx=0;entryDy=0;exitX=1;exitY=0.5;exitDx=0;exitDy=0;endArrow=none;endFill=0;" parent="1" source="ENDCgceuRyKjVsSIVM5c-81" target="ENDCgceuRyKjVsSIVM5c-81" edge="1">
          <mxGeometry relative="1" as="geometry">
            <Array as="points">
              <mxPoint x="960" y="420" />
              <mxPoint x="960" y="480" />
              <mxPoint x="870" y="480" />
            </Array>
          </mxGeometry>
        </mxCell>
        <mxCell id="54kq27QgdEbS9Q5KJkMP-2" value="1 : M" style="text;strokeColor=none;fillColor=none;spacingLeft=4;spacingRight=4;overflow=hidden;rotatable=0;points=[[0,0.5],[1,0.5]];portConstraint=eastwest;fontSize=12;whiteSpace=wrap;html=1;fontStyle=1" parent="1" vertex="1">
          <mxGeometry x="870" y="445" width="40" height="30" as="geometry" />
        </mxCell>
      </root>
    </mxGraphModel>
  </diagram>
</mxfile>
